<svg width="40" height="40" viewBox="0 0 40 40" fill="none" xmlns="http://www.w3.org/2000/svg">
<path d="M0 20C0 8.95431 8.95431 0 20 0C31.0457 0 40 8.95431 40 20C40 31.0457 31.0457 40 20 40C8.95431 40 0 31.0457 0 20Z" fill="#303339"/>
<path fill-rule="evenodd" clip-rule="evenodd" d="M26.653 13.8213H11L11 13.8213V24.0379L26.653 24.0379L26.653 13.8213ZM11 12.8213C10.4477 12.8213 10 13.269 10 13.8213V24.0379C10 24.5902 10.4477 25.0379 11 25.0379H26.653C27.2053 25.0379 27.653 24.5902 27.653 24.0379V13.8213C27.653 13.269 27.2053 12.8213 26.653 12.8213H11ZM29.486 15.3757C29.7622 15.3757 29.986 15.5996 29.986 15.8757V25.8706C29.986 26.6991 29.3144 27.3706 28.486 27.3706H12.3828C12.1066 27.3706 11.8828 27.1468 11.8828 26.8706C11.8828 26.5945 12.1066 26.3706 12.3828 26.3706H28.486C28.7622 26.3706 28.986 26.1468 28.986 25.8706V15.8757C28.986 15.5996 29.2099 15.3757 29.486 15.3757ZM18.0476 17.4866H18.9342C19.4865 17.4866 19.9342 17.9343 19.9342 18.4866V19.3732C19.9342 19.9255 19.4865 20.3732 18.9342 20.3732H18.0476C17.4953 20.3732 17.0476 19.9255 17.0476 19.3732V18.4866C17.0476 17.9343 17.4953 17.4866 18.0476 17.4866ZM16.0476 18.4866C16.0476 17.382 16.943 16.4866 18.0476 16.4866H18.9342C20.0388 16.4866 20.9342 17.382 20.9342 18.4866V19.3732C20.9342 20.4778 20.0388 21.3732 18.9342 21.3732H18.0476C16.943 21.3732 16.0476 20.4778 16.0476 19.3732V18.4866Z" fill="#D9DCE0"/>
</svg>
